<?xml version="1.0" standalone="no"?>
<!DOCTYPE svg PUBLIC "-//W3C//DTD SVG 20010904//EN"
 "http://www.w3.org/TR/2001/REC-SVG-20010904/DTD/svg10.dtd">
<svg version="1.0" xmlns="http://www.w3.org/2000/svg"
 width="460.000000pt" height="460.000000pt" viewBox="0 0 460.000000 460.000000"
 preserveAspectRatio="xMidYMid meet">
<metadata>
Created by potrace 1.14, written by Peter Selinger 2001-2017
</metadata>
<g transform="translate(0.000000,460.000000) scale(0.100000,-0.100000)"
fill="#000000" stroke="none">
<path d="M0 2300 l0 -2300 2300 0 2300 0 0 2300 0 2300 -2300 0 -2300 0 0
-2300z m3024 1236 c51 -26 55 -40 56 -194 l0 -144 -31 -29 c-41 -39 -88 -39
-129 -1 l-30 27 -1 148 0 148 33 29 c37 33 63 37 102 16z m-326 -28 c3 -26 1
-27 -50 -30 l-53 -3 0 -45 c0 -43 1 -45 38 -53 32 -8 37 -13 37 -38 0 -26 -3
-29 -34 -29 -30 0 -35 -4 -41 -30 -12 -54 0 -70 55 -70 54 0 65 -9 56 -46 -6
-23 -10 -24 -91 -24 l-85 0 0 185 c0 151 3 185 14 185 8 0 17 7 20 15 4 13 19
15 68 13 60 -3 63 -4 66 -30z m505 23 c4 -1 7 -10 7 -20 0 -11 4 -22 8 -25 5
-3 17 -35 27 -71 9 -36 21 -65 26 -65 5 0 9 22 9 49 0 28 5 53 10 56 6 3 10
-3 10 -13 0 -11 9 -22 20 -25 20 -5 29 -47 10 -47 -5 0 -10 -5 -10 -11 0 -5 4
-8 9 -4 13 8 23 -67 19 -145 l-3 -65 -34 0 c-37 0 -40 6 -77 128 -9 31 -21 57
-25 57 -5 0 -9 -43 -9 -96 l0 -95 -32 3 -33 3 0 180 c0 99 3 188 7 197 5 12
15 17 30 14 13 -3 26 -5 31 -5z m-1402 -13 c0 -10 2 -10 6 0 2 6 18 12 34 12
l29 0 0 -195 0 -195 -29 0 c-35 0 -41 13 -41 88 0 41 -3 53 -10 42 -5 -8 -10
-24 -10 -35 0 -11 -5 -37 -11 -57 -8 -30 -15 -38 -33 -38 -25 0 -39 25 -51 90
-14 75 -20 73 -25 -5 l-5 -80 -30 0 -30 0 -3 120 c-2 66 0 139 3 163 6 41 7
42 45 42 21 0 40 5 42 12 2 6 10 -15 17 -48 20 -89 27 -109 37 -107 5 1 10 10
12 20 10 68 38 183 44 183 5 0 8 -6 9 -12z m539 8 c0 -2 -7 -6 -15 -10 -8 -3
-15 -1 -15 4 0 6 7 10 15 10 8 0 15 -2 15 -4z m-107 -13 c-7 -2 -19 -2 -25 0
-7 3 -2 5 12 5 14 0 19 -2 13 -5z m96 -8 c20 6 21 3 21 -58 0 -69 8 -81 49
-70 17 4 21 13 21 49 0 30 4 43 13 42 6 -2 11 2 10 9 -1 6 5 10 15 9 15 -3 17
-20 17 -172 l0 -169 -27 -3 -27 -3 -3 83 -3 83 -30 0 -30 0 -3 -82 -3 -83 -29
0 c-39 0 -42 14 -36 170 2 69 5 145 5 170 1 29 4 40 10 31 5 -8 16 -11 30 -6z
m-89 -15 c0 -5 -9 -10 -20 -10 -11 0 -20 5 -20 10 0 6 9 10 20 10 11 0 20 -4
20 -10z m-724 -195 c26 -137 25 -149 -12 -153 -30 -3 -32 -1 -38 42 -7 42 -10
46 -35 46 -24 0 -28 -5 -37 -42 -8 -39 -12 -43 -39 -43 -28 0 -30 2 -27 35 2
19 9 67 17 105 8 39 17 88 20 109 5 29 9 36 16 25 7 -12 9 -12 9 1 0 13 1 13
10 0 8 -12 10 -10 11 10 0 14 3 19 6 13 3 -10 10 -10 24 -2 11 5 24 7 29 4 6
-3 11 4 11 17 1 13 5 1 9 -27 5 -27 16 -90 26 -140z m657 121 c4 -26 6 -97 5
-159 l-3 -112 -32 -3 -33 -3 0 155 c0 132 2 156 15 156 8 0 15 5 15 11 0 6 6
9 12 7 7 -3 16 -26 21 -52z m1253 -129 c9 3 14 -1 14 -13 0 -15 2 -16 9 -5 7
11 10 5 13 -20 3 -33 4 -34 53 -39 48 -5 50 -6 50 -35 l0 -30 -80 0 -80 0 -1
90 c-1 50 0 80 3 68 3 -14 9 -20 19 -16z m-2290 -123 c-3 -8 -16 -13 -28 -13
l-23 2 23 4 c18 4 22 11 24 46 1 39 2 39 5 9 3 -19 2 -40 -1 -48z m828 -148
l36 -33 2 -114 c3 -131 1 -205 -6 -234 -9 -33 -66 -65 -117 -65 -34 0 -51 6
-66 23 -39 42 -43 63 -43 212 0 162 9 197 58 227 46 29 95 23 136 -16z m746
18 c53 -32 60 -58 60 -224 0 -161 -7 -193 -52 -224 -13 -9 -43 -16 -71 -16
-39 0 -52 5 -73 27 -34 37 -36 49 -32 233 l3 162 35 29 c40 33 87 38 130 13z
m833 -8 c32 -30 45 -74 26 -87 -24 -15 -58 -10 -69 12 -7 13 -19 19 -33 17
-18 -2 -22 -9 -21 -40 1 -32 10 -47 63 -99 70 -71 88 -115 71 -178 -14 -54
-51 -81 -109 -81 -26 0 -56 7 -69 16 -28 19 -52 65 -52 99 0 22 4 25 35 25 28
0 37 -5 50 -31 22 -42 59 -38 63 9 3 28 -5 41 -62 100 -74 77 -90 110 -81 169
8 58 52 93 116 93 35 0 52 -6 72 -24z m-2391 -41 c13 -78 18 -95 28 -95 6 0
10 11 10 24 0 14 5 48 12 76 12 50 12 51 47 48 39 -3 46 -14 56 -100 4 -27 10
-48 14 -48 4 0 14 33 22 73 l14 72 39 3 39 3 -6 -48 c-3 -26 -13 -95 -22 -153
-10 -58 -22 -141 -29 -185 l-11 -80 -40 0 -40 0 -14 78 c-8 42 -17 77 -21 77
-3 0 -12 -36 -19 -80 l-13 -80 -38 0 c-44 0 -40 -9 -65 160 -9 58 -22 143 -30
189 -22 123 -22 123 22 119 37 -3 38 -4 45 -53z m416 -43 l3 -93 32 3 32 3 3
93 3 92 40 0 39 0 -2 -232 -3 -233 -37 -3 -38 -3 0 90 c0 79 -2 92 -19 101
-40 21 -50 4 -53 -93 l-3 -92 -37 -3 -38 -3 0 236 0 236 38 -3 37 -3 3 -93z
m877 68 c24 -26 29 -39 30 -83 l0 -52 -35 0 c-32 0 -35 3 -38 32 -4 38 -24 57
-52 48 -19 -6 -20 -14 -20 -144 0 -114 3 -141 16 -152 24 -20 48 1 54 47 5 37
7 39 40 39 31 0 35 -3 38 -29 2 -16 1 -44 -2 -61 -20 -106 -163 -125 -214 -28
-8 14 -12 79 -12 178 0 205 14 233 121 234 38 1 50 -4 74 -29z m577 1 l33 -29
3 -157 c4 -170 -2 -201 -46 -235 -20 -16 -40 -20 -103 -20 l-79 0 0 235 0 235
80 0 c74 0 82 -2 112 -29z m306 -8 l-3 -38 -62 -3 -63 -3 0 -53 c0 -58 7 -66
61 -66 26 0 29 -3 29 -34 0 -34 -1 -35 -42 -38 l-43 -3 0 -55 0 -55 60 -5 60
-5 0 -35 0 -35 -102 -3 -103 -3 0 236 0 235 106 0 105 0 -3 -37z m-1654 -549
c14 -13 16 -47 16 -219 0 -192 -1 -205 -19 -215 -12 -6 -106 -10 -235 -10
l-215 0 3 49 c3 39 1 48 -10 44 -8 -3 -14 0 -14 6 0 6 -6 8 -14 5 -11 -4 -15
7 -17 45 -4 49 -3 51 22 51 30 0 49 17 49 43 0 17 1 17 16 3 9 -10 13 -24 9
-37 -4 -11 -4 -31 -1 -45 5 -19 13 -24 36 -24 20 0 30 5 30 15 0 8 -7 15 -15
15 -11 0 -15 11 -15 40 0 29 4 40 15 40 8 0 15 5 15 10 0 6 -6 10 -14 10 -8 0
-16 10 -18 23 -2 12 -10 22 -18 22 -8 0 -16 -10 -18 -22 -2 -13 -7 -23 -10
-23 -4 0 -12 10 -17 23 -8 18 -21 23 -65 28 -30 3 -49 6 -41 7 8 1 12 5 9 8
-3 3 -15 0 -27 -7 -25 -16 -30 -11 -38 34 -7 47 3 84 25 90 9 3 139 5 289 6
235 1 274 -1 287 -15z m646 -4 c13 -24 11 -382 -1 -417 l-9 -23 -294 0 c-282
0 -296 1 -306 19 -6 12 -10 98 -10 211 0 113 4 199 10 211 10 18 24 19 305 19
286 0 295 -1 305 -20z m628 11 c10 -6 13 -56 12 -222 0 -117 -4 -217 -8 -221
-5 -5 -137 -9 -294 -11 -228 -1 -289 1 -302 12 -14 12 -16 40 -16 213 0 118 4
207 10 219 10 18 24 19 298 19 158 0 293 -4 300 -9z m627 -3 c31 -14 32 -23 3
-25 -19 -2 -20 0 -8 8 13 9 13 10 0 6 -8 -2 -14 -8 -13 -13 0 -5 -10 -17 -23
-27 -21 -15 -24 -16 -24 -2 0 18 -9 19 -32 1 -16 -12 -16 -14 4 -30 17 -15 22
-16 29 -5 7 11 12 12 28 2 15 -10 21 -10 25 0 7 18 -1 -304 -9 -335 l-7 -27
-265 -3 c-206 -2 -270 0 -284 10 -18 12 -19 30 -19 221 0 148 3 210 12 219 17
17 546 17 583 0z m22 -63 c-4 -33 -16 -43 -13 -11 2 14 -1 26 -5 26 -5 0 -9
-5 -9 -12 0 -6 -3 -9 -6 -5 -9 9 5 27 22 27 10 0 14 -8 11 -25z m-2389 -121
c2 -16 -3 -23 -22 -26 -19 -4 -25 0 -29 18 -5 29 1 36 28 32 12 -2 21 -12 23
-24z m2 -195 c0 -5 -4 -9 -10 -9 -5 0 -10 7 -10 16 0 8 5 12 10 9 6 -3 10 -10
10 -16z m469 -103 c9 -11 11 -70 9 -221 -2 -170 -6 -207 -18 -215 -8 -5 -71
-9 -140 -8 -88 1 -112 3 -80 8 25 4 40 8 34 8 -7 1 -15 10 -19 20 -5 13 -3 14
5 6 13 -13 50 -7 50 7 0 5 -6 6 -14 3 -19 -7 -31 15 -16 29 10 9 11 9 6 0 -5
-9 -2 -11 8 -7 25 9 19 24 -9 24 -14 0 -25 -5 -25 -12 0 -6 -9 -1 -20 12 l-20
23 6 -30 c3 -17 2 -33 -3 -36 -5 -4 -10 7 -10 23 0 16 -7 38 -17 49 -12 13
-19 44 -23 97 -5 56 -11 82 -25 96 -12 12 -14 18 -5 19 9 0 9 2 0 6 -11 4 -21
-2 -58 -35 -9 -8 -16 -9 -20 -2 -3 5 0 10 7 10 8 1 6 6 -6 15 -11 9 -20 31
-23 59 -3 26 -10 46 -14 46 -5 0 -9 4 -9 9 0 5 96 10 218 10 181 2 221 -1 231
-13z m642 -8 c15 -29 2 -420 -15 -430 -6 -4 -138 -8 -292 -8 -241 0 -283 2
-294 15 -18 22 -27 392 -11 423 12 22 14 22 306 22 291 0 294 0 306 -22z m637
-197 c2 -149 -1 -218 -9 -227 -16 -19 -578 -21 -597 -2 -13 13 -18 401 -6 432
6 15 39 16 308 14 l301 -3 3 -214z m581 196 c-7 -15 -19 -23 -32 -23 -26 1
-36 -36 -17 -60 9 -10 9 -14 1 -14 -6 0 -11 -7 -11 -15 0 -8 -4 -15 -8 -15
-18 0 -102 -91 -102 -109 0 -22 -19 -38 -29 -24 -3 5 -13 8 -21 8 -10 0 -17
13 -20 39 -6 49 -32 67 -77 54 -38 -10 -46 -33 -9 -24 27 7 56 -1 56 -15 0 -5
-12 -9 -26 -9 -14 0 -34 -5 -45 -10 -34 -19 -17 -86 18 -73 8 3 19 0 24 -8 6
-10 9 -10 9 -1 0 6 5 12 11 12 5 0 7 -5 4 -11 -8 -12 36 11 46 24 3 5 9 2 12
-7 5 -12 0 -16 -19 -16 -14 0 -22 -4 -19 -10 3 -5 1 -10 -5 -10 -7 0 -10 -7
-7 -14 4 -10 1 -13 -8 -9 -8 3 -12 10 -8 17 4 6 0 5 -9 -2 -10 -8 -30 -11 -47
-9 -17 3 -34 1 -37 -4 -3 -6 -16 -3 -31 6 -14 10 -22 12 -19 6 4 -6 3 -11 -3
-11 -5 0 -13 5 -16 10 -3 6 -17 10 -31 10 -21 0 -24 -4 -24 -40 0 -22 5 -40
10 -40 6 0 10 7 10 15 0 20 38 19 42 -1 2 -13 14 -17 49 -17 26 0 53 4 60 8
12 8 12 6 0 -8 -7 -9 -25 -18 -40 -19 -14 -1 6 -4 44 -8 58 -5 47 -7 -68 -8
-108 -2 -142 1 -153 12 -11 12 -14 55 -14 214 0 110 3 207 6 216 5 14 40 16
285 16 l279 0 -11 -23z m-275 -236 c9 -14 -6 -21 -21 -9 -11 8 -12 7 -7 -6 3
-9 2 -16 -4 -16 -12 0 -23 26 -15 34 9 9 41 7 47 -3z m70 -88 c4 -11 1 -11
-14 -3 -24 13 -25 17 -5 17 8 0 16 -6 19 -14z m-250 -12 c3 -5 -1 -11 -9 -15
-9 -3 -15 0 -15 9 0 16 16 20 24 6z m43 -17 c-3 -3 -12 -4 -19 -1 -8 3 -5 6 6
6 11 1 17 -2 13 -5z m123 -20 c0 -8 -4 -12 -10 -9 -5 3 -10 10 -10 16 0 5 5 9
10 9 6 0 10 -7 10 -16z m-110 -4 c0 -5 -4 -10 -10 -10 -5 0 -10 5 -10 10 0 6
5 10 10 10 6 0 10 -4 10 -10z m40 0 c0 -5 -4 -10 -10 -10 -5 0 -10 5 -10 10 0
6 5 10 10 10 6 0 10 -4 10 -10z m-1511 -89 c23 -15 19 -104 -7 -131 -25 -27
-57 -21 -47 10 4 11 2 20 -4 20 -6 0 -11 -7 -11 -15 0 -16 -15 -20 -24 -7 -10
17 12 35 39 30 23 -5 26 -3 21 16 -3 11 -6 29 -6 39 0 10 -6 17 -12 15 -7 -3
-13 -15 -13 -28 0 -13 -5 -25 -12 -27 -8 -3 -11 6 -10 23 2 34 -24 44 -49 19
-15 -15 -14 -15 12 -9 28 6 28 6 9 -9 -11 -9 -24 -17 -28 -17 -15 0 -39 30
-34 44 3 7 0 19 -6 25 -14 14 160 16 182 2z m649 -90 c2 -65 -1 -97 -9 -102
-7 -4 -47 -7 -91 -7 -43 -1 -83 -4 -88 -7 -6 -3 -10 -2 -10 3 0 5 15 14 33 20
l32 12 -42 -4 c-42 -4 -64 -18 -76 -46 -4 -11 -6 -10 -7 5 -1 11 -2 23 -1 27
2 14 -42 30 -70 26 -26 -4 -29 -2 -29 24 0 18 -5 28 -15 28 -16 0 -17 -5 -20
-55 0 -17 -4 -36 -8 -42 -4 -6 -6 -17 -4 -25 2 -7 2 -10 0 -5 -3 4 -9 5 -14 1
-5 -3 -9 -1 -9 5 0 5 4 12 9 16 13 7 7 49 -10 75 -12 18 -25 22 -69 23 l-55 2
-6 -60 c-3 -33 -6 -54 -7 -48 -2 14 -23 13 -33 0 -3 -5 -9 37 -13 92 -10 154
-38 142 314 139 l295 -3 3 -94z m626 93 c13 -5 16 -25 16 -115 l0 -109 -25 6
c-14 3 -25 2 -25 -3 0 -17 -35 -50 -47 -46 -8 3 -13 -5 -14 -19 l0 -23 -9 23
c-11 26 -45 29 -72 5 -10 -9 -21 -13 -25 -9 -4 4 -1 11 7 16 13 8 12 10 -2 10
-10 0 -18 -3 -18 -7 0 -13 -133 -8 -165 5 -23 11 -26 15 -15 22 13 8 12 10 -2
10 -12 0 -18 8 -19 23 0 12 -3 17 -5 10 -8 -18 -78 10 -83 32 -3 16 2 17 43
12 37 -5 46 -4 46 8 0 16 -43 31 -75 26 -38 -6 -54 -30 -53 -80 1 -25 3 -38 6
-28 2 9 8 17 13 17 6 0 7 -5 3 -12 -5 -8 -1 -9 12 -4 14 5 16 4 8 -4 -18 -18
-84 -13 -84 7 0 7 -4 13 -10 13 -15 0 -13 193 2 208 9 9 88 12 294 12 155 0
289 -3 298 -6z m241 -1 c-34 -8 -41 -23 -12 -23 31 0 33 -7 9 -37 -20 -25 -78
-50 -109 -48 -23 2 -27 -5 -23 -40 2 -16 0 -17 -14 -6 -11 9 -16 10 -16 2 0
-6 -6 -11 -14 -11 -10 0 -16 -13 -19 -37 -2 -21 -4 12 -5 73 -1 74 2 114 10
122 8 8 46 12 113 11 55 -1 91 -3 80 -6z m-1640 -101 c-3 -3 -11 0 -18 7 -9
10 -8 11 6 5 10 -3 15 -9 12 -12z m315 -67 c10 -12 9 -15 -4 -15 -9 0 -19 -6
-22 -13 -9 -26 -34 -15 -34 15 0 23 4 28 24 28 13 0 29 -7 36 -15z m155 -44
c3 -5 1 -12 -5 -16 -5 -3 -10 -1 -10 5 0 7 -7 9 -16 6 -8 -3 -12 -2 -9 4 8 13
32 13 40 1z m467 -53 c-10 -10 -15 -10 -22 2 -6 9 -5 17 3 22 18 11 33 -10 19
-24z m345 -30 c-3 -8 -6 -5 -6 6 -1 11 2 17 5 13 3 -3 4 -12 1 -19z"/>
<path d="M2957 3474 c-4 -4 -7 -60 -7 -124 0 -92 3 -120 15 -130 12 -10 18
-10 30 0 13 11 15 35 13 134 -3 113 -4 121 -23 124 -12 2 -24 0 -28 -4z"/>
<path d="M1828 3513 c6 -2 18 -2 25 0 6 3 1 5 -13 5 -14 0 -19 -2 -12 -5z"/>
<path d="M1416 3344 c-11 -29 -6 -44 14 -44 22 0 23 3 14 38 -7 26 -19 29 -28
6z"/>
<path d="M1865 2954 c-21 -22 -22 -261 -1 -290 12 -15 18 -17 33 -8 16 10 18
28 21 135 1 68 0 134 -3 145 -7 29 -31 37 -50 18z"/>
<path d="M2627 2953 c-13 -12 -8 -278 5 -291 16 -16 23 -15 42 4 13 12 16 40
16 139 0 68 -3 130 -6 139 -6 16 -45 22 -57 9z"/>
<path d="M2917 2953 c-4 -3 -7 -71 -7 -150 0 -120 3 -145 15 -150 9 -3 25 3
35 12 18 16 20 32 20 131 0 62 -4 124 -10 138 -9 25 -38 35 -53 19z"/>
<path d="M1567 2413 c8 -3 11 -14 7 -31 -6 -26 -6 -26 9 -7 23 28 21 45 -5 44
-13 0 -17 -3 -11 -6z"/>
<path d="M1613 2393 c2 -17 9 -29 20 -31 13 -3 17 4 17 30 0 25 -3 29 -10 18
-6 -10 -10 -11 -10 -2 0 6 -4 12 -9 12 -6 0 -9 -12 -8 -27z m27 -13 c0 -5 -4
-10 -10 -10 -5 0 -10 5 -10 10 0 6 5 10 10 10 6 0 10 -4 10 -10z"/>
<path d="M1268 2098 c-4 -41 -1 -58 13 -58 5 0 9 11 9 25 0 14 5 25 10 25 6 0
10 -11 10 -23 0 -20 5 -24 35 -25 23 -1 38 4 44 16 9 15 11 15 12 -3 1 -17 2
-16 8 4 9 34 31 39 31 7 0 -14 5 -26 11 -26 6 0 9 12 7 28 -2 21 -9 28 -30 30
-18 2 -28 -1 -28 -9 0 -10 -3 -10 -12 -1 -15 15 -48 16 -48 2 0 -5 -5 -10 -11
-10 -5 0 -7 5 -4 10 6 9 -8 14 -20 8 -2 -2 -10 6 -18 16 -14 18 -15 17 -19
-16z m107 -28 c0 -7 -6 -15 -12 -17 -8 -3 -13 4 -13 17 0 13 5 20 13 18 6 -3
12 -11 12 -18z"/>
<path d="M1240 2082 c0 -23 3 -42 8 -42 9 0 7 68 -2 77 -3 4 -6 -12 -6 -35z"/>
<path d="M2190 2405 c0 -8 7 -15 15 -15 21 0 19 -18 -2 -23 -14 -4 -12 -5 5
-6 16 -1 22 5 22 19 0 11 -6 20 -12 20 -9 0 -8 4 2 10 12 8 11 10 -7 10 -14 0
-23 -6 -23 -15z"/>
<path d="M2244 2405 c-8 -21 2 -45 20 -45 24 0 29 31 5 37 -16 4 -17 8 -7 14
10 7 10 9 0 9 -7 0 -15 -7 -18 -15z m26 -25 c0 -5 -2 -10 -4 -10 -3 0 -8 5
-11 10 -3 6 -1 10 4 10 6 0 11 -4 11 -10z"/>
<path d="M1758 2323 c-4 -22 -6 -131 -2 -150 4 -19 11 -23 44 -23 63 0 90 15
90 49 0 16 -5 33 -10 36 -7 4 -6 13 1 27 8 15 8 27 0 44 -9 21 -17 24 -66 24
-30 0 -56 -3 -57 -7z m97 -33 c10 -16 -14 -40 -40 -40 -24 0 -35 16 -27 38 5
15 58 16 67 2z m3 -87 c3 -20 -1 -23 -31 -23 -40 0 -46 5 -40 31 8 30 67 23
71 -8z"/>
<path d="M1943 2283 c-13 -2 -23 -11 -23 -20 0 -9 6 -13 15 -9 8 3 21 9 29 12
9 3 19 -3 26 -15 10 -19 8 -21 -15 -21 -37 0 -65 -17 -65 -40 0 -26 26 -37 80
-35 l44 1 -3 50 c-3 65 -30 88 -88 77z m57 -83 c0 -15 -30 -32 -45 -26 -21 8
-19 34 3 38 20 5 42 -1 42 -12z"/>
<path d="M1750 2081 l0 -40 63 1 63 0 -4 29 c-3 22 -9 29 -26 28 -17 -1 -17
-2 -3 -6 18 -5 24 -43 6 -43 -15 0 -36 23 -41 46 -2 12 -13 20 -31 22 -25 3
-27 1 -27 -37z m47 -1 c0 -18 -6 -30 -13 -30 -8 0 -12 12 -12 30 1 17 6 30 13
30 6 0 12 -13 12 -30z"/>
<path d="M1942 2080 c0 -33 2 -39 7 -21 9 35 29 37 34 4 4 -27 4 -27 6 5 1 25
-3 32 -18 32 -11 0 -22 6 -24 13 -3 6 -5 -8 -5 -33z"/>
<path d="M1885 2091 c-3 -6 5 -15 17 -22 22 -12 22 -12 3 -20 -19 -8 -19 -9
-1 -6 28 3 31 24 4 33 l-23 8 25 7 c23 6 23 7 3 8 -12 1 -24 -3 -28 -8z"/>
<path d="M2859 2408 c-1 -7 -1 -18 0 -25 1 -6 -6 -14 -16 -17 -11 -3 -8 -4 7
-3 20 2 25 7 25 30 1 26 -14 40 -16 15z"/>
<path d="M2898 2413 c6 -2 18 -2 25 0 6 3 1 5 -13 5 -14 0 -19 -2 -12 -5z"/>
<path d="M2910 2393 c15 -7 12 -21 -5 -26 -11 -4 -10 -4 2 -3 21 2 25 28 5 32
-7 1 -8 0 -2 -3z"/>
<path d="M2453 2318 c-6 -7 -18 -38 -28 -68 -10 -30 -21 -59 -26 -64 -14 -15
-10 -36 6 -36 8 0 17 11 21 25 9 36 60 35 90 -2 25 -32 43 -25 26 10 -6 12
-22 49 -34 81 -25 62 -38 75 -55 54z m37 -79 c0 -14 -7 -19 -25 -19 -29 0 -29
0 -13 34 9 20 14 23 25 15 7 -6 13 -20 13 -30z"/>
<path d="M2593 2282 c-26 -4 -40 -37 -24 -56 6 -8 25 -16 42 -20 43 -8 32 -32
-15 -29 -46 3 -47 -14 -2 -22 74 -14 106 47 37 70 -19 6 -37 17 -39 23 -5 17
27 27 41 13 15 -15 27 -14 27 3 0 15 -32 23 -67 18z"/>
<path d="M2420 2104 c0 -8 5 -12 10 -9 6 3 10 10 10 16 0 5 -4 9 -10 9 -5 0
-10 -7 -10 -16z"/>
<path d="M2751 2095 c0 -16 3 -24 6 -17 6 16 28 15 42 -2 10 -11 8 -16 -8 -21
-12 -3 -25 -3 -31 0 -5 3 -10 1 -10 -4 0 -15 41 -13 63 3 18 14 24 32 7 21 -5
-3 -10 -1 -10 4 0 6 4 11 8 11 5 0 9 7 9 16 0 14 -2 14 -11 2 -12 -15 -47 -12
-58 6 -4 6 -7 -2 -7 -19z"/>
<path d="M2477 2093 c-12 -12 -7 -21 14 -26 14 -4 18 -10 14 -19 -7 -11 -5
-11 6 0 12 11 11 15 -5 24 -15 8 -16 12 -5 19 11 7 11 9 -2 9 -9 0 -19 -3 -22
-7z"/>
<path d="M2530 2085 c0 -8 5 -15 11 -15 5 0 8 4 4 9 -3 5 3 12 12 14 14 4 13
5 -4 6 -14 1 -23 -5 -23 -14z"/>
<path d="M2584 2085 c-10 -24 4 -45 28 -44 l23 2 -23 4 c-19 4 -23 9 -18 29 7
26 -1 33 -10 9z"/>
<path d="M2610 2096 c0 -2 7 -9 15 -16 13 -11 14 -10 9 4 -5 14 -24 23 -24 12z"/>
<path d="M2651 2068 c2 -31 2 -31 6 -5 5 33 30 36 36 5 l4 -23 2 23 c2 30 21
28 21 -3 0 -14 4 -25 10 -25 5 0 8 10 6 23 -3 12 -5 25 -5 30 -1 4 -19 7 -41
7 -39 0 -40 -1 -39 -32z"/>
<path d="M2846 2081 c3 -13 8 -31 9 -40 2 -9 4 -18 5 -21 2 -9 30 62 29 74 0
6 -5 0 -10 -14 l-10 -25 -15 25 c-15 25 -15 25 -8 1z"/>
<path d="M2440 2083 c0 -6 7 -19 16 -27 8 -9 21 -16 27 -16 7 0 4 5 -5 11 -10
5 -22 17 -27 27 -6 9 -11 12 -11 5z"/>
<path d="M2406 2065 c-9 -26 -7 -32 5 -12 6 10 9 21 6 23 -2 3 -7 -2 -11 -11z"/>
<path d="M2556 2055 c-3 -8 -1 -15 4 -15 6 0 10 7 10 15 0 8 -2 15 -4 15 -2 0
-6 -7 -10 -15z"/>
<path d="M3042 2243 c2 -58 7 -88 16 -91 8 -2 12 7 12 27 0 41 31 42 60 1 12
-16 28 -30 36 -30 18 0 18 5 -2 35 -13 20 -14 28 -5 39 16 20 17 72 1 91 -8
10 -30 15 -67 15 l-54 0 3 -87z m93 27 c0 -21 -5 -25 -30 -25 -25 0 -30 4 -32
28 -2 26 1 28 30 25 27 -2 32 -7 32 -28z"/>
<path d="M3200 2228 c0 -29 4 -58 8 -65 4 -7 30 -11 65 -10 l59 1 -6 29 c-3
16 -6 45 -6 63 0 24 -5 34 -15 34 -11 0 -15 -11 -15 -39 0 -41 -20 -67 -45
-57 -10 4 -15 19 -15 51 0 33 -4 45 -15 45 -11 0 -15 -12 -15 -52z"/>
<path d="M3041 2078 c1 -24 3 -35 6 -25 6 21 22 22 37 2 9 -12 11 -8 11 22 0
34 -3 38 -27 41 -27 3 -28 2 -27 -40z m49 17 c0 -8 -9 -15 -20 -15 -11 0 -20
7 -20 15 0 8 9 15 20 15 11 0 20 -7 20 -15z"/>
<path d="M3230 2111 c0 -6 -9 -10 -20 -10 -11 -1 -29 -1 -39 -2 -12 0 -21 -9
-23 -21 -5 -32 -26 -33 -31 -1 -4 28 -4 28 -6 -3 l-1 -32 55 -1 c57 0 69 11
38 35 -17 12 -16 13 5 14 17 0 22 -6 22 -25 0 -15 6 -25 15 -25 11 0 12 5 5
25 -6 16 -6 25 0 25 5 0 7 7 4 15 -7 16 -24 21 -24 6z m-25 -51 c3 -5 -3 -10
-14 -10 -11 0 -23 5 -26 10 -3 6 3 10 14 10 11 0 23 -4 26 -10z"/>
<path d="M1545 1950 c-3 -5 2 -10 12 -10 15 0 16 -2 3 -10 -10 -6 -11 -10 -2
-10 18 0 15 -18 -5 -23 -14 -4 -12 -5 5 -6 19 -1 22 4 22 34 0 34 -20 49 -35
25z"/>
<path d="M1603 1944 c-4 -10 1 -20 13 -27 18 -10 17 -11 -1 -19 -20 -8 -20 -8
0 -5 26 3 32 34 8 40 -17 4 -17 5 0 6 21 1 23 21 2 21 -9 0 -18 -7 -22 -16z"/>
<path d="M1530 1616 c0 -25 5 -48 12 -52 6 -4 8 -3 4 4 -3 6 -2 13 4 17 5 3
10 1 10 -4 0 -6 4 -11 8 -11 5 0 9 14 9 30 0 32 -6 37 -25 18 -9 -9 -11 -7 -7
10 2 12 0 24 -6 27 -5 4 -9 -13 -9 -39z"/>
<path d="M2265 1938 c8 -20 -10 -25 -19 -5 -3 6 -4 -1 -3 -18 1 -19 7 -30 17
-30 18 0 26 43 10 59 -8 8 -10 7 -5 -6z m5 -38 c0 -5 -4 -10 -10 -10 -5 0 -10
5 -10 10 0 6 5 10 10 10 6 0 10 -4 10 -10z"/>
<path d="M1793 1832 c-54 -42 -48 -126 11 -157 61 -33 123 20 113 95 -9 69
-74 101 -124 62z m79 -29 c24 -21 23 -68 -2 -93 -24 -24 -38 -25 -62 -3 -22
20 -23 70 -1 95 20 22 41 23 65 1z"/>
<path d="M1788 1629 c19 -20 15 -51 -5 -47 -12 3 -17 12 -16 26 2 12 -2 22 -8
22 -6 0 -9 -12 -7 -27 2 -22 8 -28 28 -28 21 0 25 5 25 29 0 17 -6 31 -15 34
-12 4 -13 2 -2 -9z"/>
<path d="M1820 1608 c0 -34 3 -38 25 -38 18 0 25 5 25 20 0 11 -8 24 -17 27
-10 4 -21 11 -25 17 -4 6 -8 -6 -8 -26z m38 -16 c2 -7 -3 -12 -12 -12 -9 0
-16 7 -16 16 0 17 22 14 28 -4z"/>
<path d="M2009 1632 c-3 -8 -24 -14 -54 -15 -43 -2 -50 -5 -53 -24 -3 -18 1
-23 20 -22 22 0 22 1 3 9 -18 8 -18 9 -2 9 10 1 28 -6 41 -15 14 -8 27 -11 30
-6 3 5 -4 12 -15 15 -25 7 -16 27 12 27 12 0 19 -7 19 -20 0 -11 4 -20 9 -20
5 0 7 10 4 23 -4 21 -4 21 12 -3 l16 -25 -5 25 -5 25 18 -24 c18 -23 19 -23
29 -5 10 17 11 17 12 2 0 -13 8 -18 28 -17 24 0 25 1 7 9 -16 7 -14 9 15 9 34
1 34 1 12 16 -24 18 -69 15 -81 -4 -6 -10 -10 -9 -14 3 -4 9 -15 16 -26 16
-11 0 -21 6 -23 13 -4 9 -6 9 -9 -1z"/>
<path d="M2201 1621 c-15 -26 8 -54 40 -48 22 4 22 4 -4 6 -23 1 -28 5 -25 24
2 14 9 21 21 21 9 -1 17 2 17 7 0 17 -39 9 -49 -10z"/>
<path d="M1880 1591 c0 -16 -6 -32 -12 -34 -8 -3 -6 -6 5 -6 13 -1 17 7 17 34
0 19 -2 35 -5 35 -3 0 -5 -13 -5 -29z"/>
<path d="M2895 1910 c0 -19 5 -30 14 -30 8 0 11 6 7 16 -3 9 -6 22 -6 30 0 8
-3 14 -7 14 -5 0 -8 -13 -8 -30z"/>
<path d="M2408 1780 c-2 -44 -1 -85 0 -90 8 -23 21 -7 24 28 3 36 4 37 46 40
l42 3 0 -40 c0 -30 4 -41 15 -41 12 0 15 17 15 90 0 73 -3 90 -15 90 -11 0
-15 -11 -15 -41 l0 -40 -42 3 c-42 3 -43 4 -46 41 -6 66 -20 39 -24 -43z"/>
<path d="M2602 1610 c0 -31 2 -39 7 -25 7 18 8 18 18 1 8 -15 10 -13 10 13 0
24 -3 28 -13 20 -9 -8 -14 -4 -17 13 -2 13 -5 3 -5 -22z"/>
<path d="M2719 1624 c-7 -42 -1 -54 25 -54 19 0 21 4 18 41 -5 46 -13 46 -14
0 -1 -44 -16 -39 -20 7 -3 37 -3 37 -9 6z"/>
<path d="M2409 1638 c-8 -24 -7 -58 1 -58 5 0 10 14 10 30 0 17 -2 30 -5 30
-3 0 -5 -1 -6 -2z"/>
<path d="M2456 1624 c-3 -9 -2 -23 4 -32 7 -14 9 -10 10 16 0 35 -5 41 -14 16z"/>
<path d="M2503 1624 c20 -6 23 -44 3 -44 -8 0 -17 6 -19 13 -3 7 -6 5 -6 -5
-1 -13 7 -18 25 -18 22 0 25 4 22 27 -2 19 -9 28 -23 30 -16 1 -16 1 -2 -3z"/>
<path d="M2547 1623 c-10 -10 -8 -23 4 -23 5 0 8 4 4 9 -3 5 3 12 12 14 14 4
15 5 2 6 -9 0 -19 -2 -22 -6z"/>
<path d="M2655 1610 c-8 -27 6 -44 31 -37 16 4 16 5 -3 6 -16 1 -20 6 -16 21
3 11 10 20 15 20 6 0 8 -7 5 -14 -4 -10 -1 -13 9 -9 20 8 12 27 -13 31 -15 2
-23 -4 -28 -18z"/>
<path d="M2570 1591 c0 -5 -8 -12 -17 -14 -14 -4 -13 -5 4 -6 24 -1 39 14 23
24 -5 3 -10 2 -10 -4z"/>
<path d="M3048 1854 c-5 -4 -8 -45 -8 -91 0 -76 2 -83 20 -83 16 0 20 7 20 30
0 28 3 30 35 30 24 0 37 6 45 19 12 24 13 61 1 80 -10 15 -101 28 -113 15z
m87 -54 c0 -34 -50 -42 -60 -11 -9 29 3 43 33 39 21 -2 27 -8 27 -28z"/>
<path d="M3322 1740 c0 -14 2 -19 5 -12 2 6 2 18 0 25 -3 6 -5 1 -5 -13z"/>
<path d="M3344 1739 c-3 -6 -2 -15 3 -20 5 -5 9 -1 10 11 2 22 -2 25 -13 9z"/>
<path d="M2200 1472 c19 -9 22 -42 4 -42 -8 0 -14 -4 -14 -10 0 -13 23 -13 37
1 18 18 3 59 -21 58 -15 0 -17 -2 -6 -7z"/>
<path d="M2253 1473 c19 -5 22 -18 7 -28 -5 -3 -10 -13 -10 -21 0 -23 17 -8
28 26 10 29 10 30 -16 29 -17 -1 -20 -3 -9 -6z"/>
<path d="M2851 1458 c0 -16 -6 -28 -12 -28 -5 0 -7 -4 -4 -10 3 -5 15 -10 26
-10 10 0 19 5 19 10 0 6 -4 10 -9 10 -5 0 -12 12 -14 28 l-4 27 -2 -27z"/>
<path d="M2889 1464 c-16 -20 -1 -49 27 -50 27 -1 26 34 -1 42 -20 7 -20 7 0
15 15 6 16 8 4 8 -9 1 -22 -6 -30 -15z"/>
</g>
</svg>
